<svg width="360" height="24" viewBox="0 0 360 24" fill="none" xmlns="http://www.w3.org/2000/svg">
<path d="M359.867 1.02C359.867 3.264 359.233 5.644 357.963 8.16C357.623 8.84 357.238 9.18 356.807 9.18C356.127 9.18 355.787 8.84 355.787 8.16C355.787 8.00133 355.833 7.83133 355.923 7.65C357.193 5.27 357.827 3.06 357.827 1.02C357.827 0.34 358.167 0 358.847 0C359.527 0 359.867 0.34 359.867 1.02Z" fill="#EC5B9A"/>
<path d="M340.132 13.8721C340.812 13.8721 341.151 14.2121 341.151 14.8921C341.151 15.1641 341.095 15.4361 340.982 15.7081C340.868 15.9801 340.811 16.3088 340.811 16.6941C340.811 17.0568 340.925 17.4308 341.151 17.8161C341.401 18.2014 341.752 18.6208 342.206 19.0741C342.659 19.5048 343.339 19.8788 344.246 20.1961C345.152 20.5134 346.059 20.6721 346.965 20.6721C347.895 20.6721 348.688 20.4341 349.345 19.9581C350.003 19.4821 350.332 18.8134 350.332 17.9521C350.332 16.5241 350.003 15.3794 349.345 14.5181C348.688 13.6341 347.77 13.1921 346.591 13.1921C346.047 13.1921 345.492 13.3621 344.926 13.7021C344.382 14.0421 344.03 14.2121 343.871 14.2121C343.191 14.2121 342.852 13.8721 342.852 13.1921C342.852 12.7614 343.237 12.3194 344.008 11.8661C344.801 11.3901 345.662 11.1521 346.591 11.1521C348.314 11.1521 349.708 11.7868 350.773 13.0561C351.839 14.3028 352.371 15.9348 352.371 17.9521C352.371 19.4028 351.828 20.5588 350.74 21.4201C349.674 22.2814 348.53 22.7121 347.306 22.7121C346.082 22.7121 344.96 22.5648 343.94 22.2701C342.942 21.9528 342.138 21.5674 341.526 21.1141C340.914 20.6381 340.381 20.1281 339.927 19.5841C339.157 18.6321 338.771 17.7594 338.771 16.9661C338.771 16.1501 338.896 15.4361 339.146 14.8241C339.395 14.1894 339.724 13.8721 340.132 13.8721Z" fill="#EC5B9A"/>
<path d="M323.932 19.652C323.592 19.652 323.354 19.584 323.218 19.448C322.696 18.8814 322.436 16.6827 322.436 12.852C322.436 10.4494 322.662 8.43202 323.116 6.80002C323.297 6.23335 323.637 5.66668 324.136 5.10002C325.11 4.01202 326.697 3.46802 328.896 3.46802C330.664 3.46802 332.296 4.13668 333.792 5.47402C335.288 6.78868 336.036 8.20535 336.036 9.72402C336.036 12.1494 335.197 14.246 333.52 16.014C332.296 17.2834 330.822 18.5527 329.1 19.822C327.377 21.0914 326.334 21.8847 325.972 22.202C325.609 22.542 325.36 22.78 325.224 22.916L324.918 23.222C324.646 23.494 324.317 23.63 323.932 23.63C323.252 23.63 322.912 23.2787 322.912 22.576C322.912 22.1227 324.351 20.808 327.23 18.632C328.68 17.544 329.814 16.66 330.63 15.98C331.468 15.2774 332.239 14.3707 332.942 13.26C333.644 12.1494 333.996 11.05 333.996 9.96202C333.996 8.85135 333.429 7.83135 332.296 6.90202C331.162 5.97268 330.086 5.50802 329.066 5.50802C328.068 5.50802 327.32 5.59868 326.822 5.78002C325.847 6.12002 325.246 6.73202 325.02 7.61602C324.657 8.99868 324.476 10.8234 324.476 13.09C324.476 15.3567 324.612 17.034 324.884 18.122C324.929 18.394 324.952 18.564 324.952 18.632C324.952 19.312 324.612 19.652 323.932 19.652Z" fill="#EC5B9A"/>
<path d="M288.094 5.03202C288.185 5.00935 288.434 4.93002 288.842 4.79402C289.273 4.63535 289.534 4.54468 289.624 4.52202C289.715 4.49935 289.942 4.43135 290.304 4.31802C290.69 4.20468 290.939 4.13668 291.052 4.11402C291.188 4.06868 291.415 4.01202 291.732 3.94402C292.072 3.85335 292.333 3.79668 292.514 3.77402C292.696 3.72868 292.945 3.68335 293.262 3.63802C293.58 3.59268 293.863 3.55868 294.112 3.53602C294.611 3.49068 295.234 3.46802 295.982 3.46802C297.682 3.46802 299.36 3.96668 301.014 4.96402C301.694 5.37202 302.034 5.74602 302.034 6.08602C302.034 6.42602 301.955 6.67535 301.796 6.83402C301.66 6.99268 301.422 7.07202 301.082 7.07202C300.765 7.07202 300.493 7.00402 300.266 6.86802C298.748 5.96135 297.342 5.50802 296.05 5.50802C294.758 5.50802 293.614 5.62135 292.616 5.84802C291.642 6.07468 290.395 6.43735 288.876 6.93602C288.514 7.02668 288.253 7.07202 288.094 7.07202C287.414 7.07202 287.074 6.73202 287.074 6.05202C287.074 5.59868 287.414 5.25868 288.094 5.03202ZM294.894 21.318L295.982 21.352C297.637 21.352 299.53 20.5814 301.66 19.04C301.842 18.904 302.08 18.836 302.374 18.836C303.054 18.836 303.394 19.176 303.394 19.856C303.394 20.1054 303.122 20.434 302.578 20.842C300.289 22.542 298.17 23.392 296.22 23.392C294.294 23.392 292.843 23.1653 291.868 22.712C290.894 22.2587 290.146 21.556 289.624 20.604C289.511 20.3774 289.454 20.1507 289.454 19.924C289.454 19.244 289.794 18.904 290.474 18.904C290.769 18.904 291.007 19.0287 291.188 19.278C291.392 19.5047 291.494 19.6634 291.494 19.754C291.698 20.162 292.14 20.5474 292.82 20.91C292.616 18.462 292.514 15.8894 292.514 13.192V9.11202C292.514 8.43202 292.854 8.09202 293.534 8.09202C294.214 8.09202 294.554 8.43202 294.554 9.11202V13.192C294.554 15.6174 294.645 17.952 294.826 20.196L294.894 21.318Z" fill="#EC5B9A"/>
<path d="M283.002 1.02C283.002 3.264 282.368 5.644 281.098 8.16C280.758 8.84 280.373 9.18 279.942 9.18C279.262 9.18 278.922 8.84 278.922 8.16C278.922 8.00133 278.967 7.83133 279.058 7.65C280.327 5.27 280.962 3.06 280.962 1.02C280.962 0.34 281.302 0 281.982 0C282.662 0 283.002 0.34 283.002 1.02Z" fill="#EC5B9A"/>
<path d="M246.93 13.8721C247.61 13.8721 247.95 14.2121 247.95 14.8921C247.95 15.1641 247.894 15.4361 247.78 15.7081C247.667 15.9801 247.61 16.3088 247.61 16.6941C247.61 17.0568 247.724 17.4308 247.95 17.8161C248.2 18.2014 248.551 18.6208 249.004 19.0741C249.458 19.5048 250.138 19.8788 251.044 20.1961C251.951 20.5134 252.858 20.6721 253.764 20.6721C254.694 20.6721 255.487 20.4341 256.144 19.9581C256.802 19.4821 257.13 18.8134 257.13 17.9521C257.13 16.5241 256.802 15.3794 256.144 14.5181C255.487 13.6341 254.569 13.1921 253.39 13.1921C252.846 13.1921 252.291 13.3621 251.724 13.7021C251.18 14.0421 250.829 14.2121 250.67 14.2121C249.99 14.2121 249.65 13.8721 249.65 13.1921C249.65 12.7614 250.036 12.3194 250.806 11.8661C251.6 11.3901 252.461 11.1521 253.39 11.1521C255.113 11.1521 256.507 11.7868 257.572 13.0561C258.638 14.3028 259.17 15.9348 259.17 17.9521C259.17 19.4028 258.626 20.5588 257.538 21.4201C256.473 22.2814 255.328 22.7121 254.104 22.7121C252.88 22.7121 251.758 22.5648 250.738 22.2701C249.741 21.9528 248.936 21.5674 248.324 21.1141C247.712 20.6381 247.18 20.1281 246.726 19.5841C245.956 18.6321 245.57 17.7594 245.57 16.9661C245.57 16.1501 245.695 15.4361 245.944 14.8241C246.194 14.1894 246.522 13.8721 246.93 13.8721Z" fill="#595861"/>
<path d="M231.308 10.268C231.286 9.95067 231.274 9.452 231.274 8.772C231.274 6.324 231.501 3.74 231.954 1.02C232.068 0.34 232.408 0 232.974 0C233.654 0 233.994 0.328667 233.994 0.986C233.994 1.09933 233.972 1.292 233.926 1.564C233.518 4.012 233.314 6.41467 233.314 8.772V9.894C236.284 9.37267 238.437 9.112 239.774 9.112C240.454 9.112 240.794 9.452 240.794 10.132C240.794 10.812 240.454 11.152 239.774 11.152C238.46 11.152 236.34 11.4127 233.416 11.934C233.892 18.2127 235.898 21.352 239.434 21.352C240.228 21.352 241.214 21.182 242.392 20.842C243.571 20.502 244.194 20.332 244.262 20.332C244.942 20.332 245.282 20.672 245.282 21.352C245.282 21.8507 244.942 22.2133 244.262 22.44C242.358 23.0747 240.749 23.392 239.434 23.392C237.326 23.392 235.547 22.5307 234.096 20.808C232.646 19.0853 231.75 16.252 231.41 12.308L230.628 12.478C230.424 12.5007 230.3 12.512 230.254 12.512C229.574 12.512 229.234 12.172 229.234 11.492C229.234 10.948 229.574 10.608 230.254 10.472C230.685 10.3813 231.036 10.3133 231.308 10.268Z" fill="#595861"/>
<path d="M207.465 1.02C207.465 3.264 206.83 5.644 205.561 8.16C205.221 8.84 204.836 9.18 204.405 9.18C203.725 9.18 203.385 8.84 203.385 8.16C203.385 8.00133 203.43 7.83133 203.521 7.65C204.79 5.27 205.425 3.06 205.425 1.02C205.425 0.34 205.765 0 206.445 0C207.125 0 207.465 0.34 207.465 1.02Z" fill="#EC5B9A"/>
<path d="M182.916 20.2981C184.14 19.7994 185.103 19.2781 185.806 18.7341C186.508 18.1674 187.37 17.3514 188.39 16.2861C189.41 15.2207 190.078 14.5521 190.396 14.2801C191.484 13.3281 192.64 12.8521 193.864 12.8521C194.612 12.8521 195.428 13.0334 196.312 13.3961C197.218 13.7587 198.057 14.4047 198.828 15.3341C199.598 16.2634 199.984 17.3741 199.984 18.6661C199.984 19.9354 199.236 21.0461 197.74 21.9981C196.244 22.9274 194.272 23.3921 191.824 23.3921C191.144 23.3921 190.804 23.0521 190.804 22.3721C190.804 21.6921 191.144 21.3521 191.824 21.3521C193.682 21.3521 195.167 21.0574 196.278 20.4681C197.388 19.8561 197.944 19.2441 197.944 18.6321C197.944 17.7934 197.672 17.0681 197.128 16.4561C196.176 15.4134 195.088 14.8921 193.864 14.8921C193.161 14.8921 192.47 15.1867 191.79 15.7761C191.586 15.9574 190.928 16.6147 189.818 17.7481C188.73 18.8814 187.823 19.7314 187.098 20.2981C186.395 20.8647 185.579 21.3521 184.65 21.7601C183.743 22.1681 183.165 22.3721 182.916 22.3721C182.236 22.3721 181.896 22.0321 181.896 21.3521C181.896 20.9214 182.236 20.5701 182.916 20.2981Z" fill="#EC5B9A"/>
<path d="M180.25 23.052C179.049 23.052 178.12 22.508 177.462 21.42C176.828 20.332 176.51 19.0853 176.51 17.68C176.51 16.9547 176.85 16.592 177.53 16.592C178.21 16.592 178.55 17 178.55 17.816C178.55 18.632 178.709 19.3687 179.026 20.026C179.344 20.6833 179.729 21.012 180.182 21.012C180.658 21.012 181.236 20.8987 181.916 20.672C182.596 20.4453 182.97 20.332 183.038 20.332C183.718 20.332 184.058 20.672 184.058 21.352C184.058 21.8507 183.718 22.2133 183.038 22.44C181.814 22.848 180.885 23.052 180.25 23.052ZM173.45 1.02L173.416 1.598C173.144 4.318 172.963 6.33533 172.872 7.65C172.804 8.96467 172.77 10.5513 172.77 12.41C172.77 14.246 172.827 15.4473 172.94 16.014C173.484 14.8127 174.414 13.702 175.728 12.682C177.043 11.662 178.664 11.152 180.59 11.152C181.27 11.152 181.61 11.492 181.61 12.172C181.61 12.852 181.27 13.192 180.59 13.192C179.661 13.192 178.8 13.362 178.006 13.702C177.236 14.042 176.624 14.4613 176.17 14.96C175.309 15.912 174.765 16.762 174.538 17.51C174.493 17.646 174.414 17.9407 174.3 18.394C174.21 18.8247 174.142 19.108 174.096 19.244C174.074 19.4027 173.994 19.6067 173.858 19.856C173.632 20.2867 173.269 20.502 172.77 20.502C172.294 20.502 171.83 19.754 171.376 18.258C170.946 16.7393 170.73 15.3907 170.73 14.212C170.73 13.0333 170.73 11.9793 170.73 11.05C170.753 10.098 170.764 9.35 170.764 8.806C170.787 8.23933 170.832 7.548 170.9 6.732C170.968 5.916 171.002 5.38333 171.002 5.134C171.048 4.06867 171.184 2.686 171.41 0.986C171.478 0.328667 171.818 0 172.43 0C173.11 0 173.45 0.34 173.45 1.02Z" fill="#EC5B9A"/>
<path d="M163.933 23.3921H161.893C159.989 23.3921 158.606 22.9501 157.745 22.0661C156.884 21.1594 156.453 20.0148 156.453 18.6321C156.453 16.6148 157.11 14.8694 158.425 13.3961C159.74 11.9001 161.236 11.1521 162.913 11.1521C163.865 11.1521 164.726 11.3448 165.497 11.7301C166.268 12.1154 166.653 12.4894 166.653 12.8521C166.653 13.5321 166.313 13.8721 165.633 13.8721C165.338 13.8721 164.964 13.7588 164.511 13.5321C164.058 13.3054 163.525 13.1921 162.913 13.1921C161.689 13.1921 160.646 13.7701 159.785 14.9261C158.924 16.0594 158.493 17.1928 158.493 18.3261C158.493 19.4594 158.754 20.2528 159.275 20.7061C159.819 21.1368 160.692 21.3521 161.893 21.3521H163.933C165.497 21.3521 167.061 21.0914 168.625 20.5701C169.101 20.4114 169.373 20.3321 169.441 20.3321C170.121 20.3321 170.461 20.6721 170.461 21.3521C170.461 21.8508 170.121 22.2134 169.441 22.4401C167.537 23.0748 165.701 23.3921 163.933 23.3921Z" fill="#EC5B9A"/>
<path d="M148.67 6.52808C149.032 6.52808 149.406 6.69808 149.792 7.03808C150.177 7.35541 150.37 7.69541 150.37 8.05807C150.37 8.39808 150.211 8.65874 149.894 8.84008C149.599 9.02141 149.27 9.11208 148.908 9.11208C148.545 9.11208 148.239 8.95341 147.99 8.63608C147.763 8.29608 147.65 7.93341 147.65 7.54808C147.65 6.86808 147.99 6.52808 148.67 6.52808ZM145.61 19.1761C144.34 20.5361 143.048 21.5107 141.734 22.1001C141.326 22.2814 140.997 22.3721 140.748 22.3721C140.068 22.3721 139.728 22.0321 139.728 21.3521C139.728 20.9214 140.068 20.5701 140.748 20.2981C141.11 20.1621 141.586 19.8901 142.176 19.4821C142.788 19.0741 143.196 18.7681 143.4 18.5641C143.604 18.3601 143.955 17.9861 144.454 17.4421C144.975 16.8981 145.383 16.4901 145.678 16.2181C145.972 15.9234 146.369 15.6287 146.868 15.3341C147.389 15.0394 147.865 14.8921 148.296 14.8921C149.18 14.8921 149.86 15.2094 150.336 15.8441C150.812 16.4787 151.095 17.1814 151.186 17.9521C151.435 19.9921 151.832 21.0121 152.376 21.0121C152.806 21.0121 153.362 20.8987 154.042 20.6721C154.722 20.4454 155.096 20.3321 155.164 20.3321C155.844 20.3321 156.184 20.6721 156.184 21.3521C156.184 21.8507 155.844 22.2134 155.164 22.4401C153.94 22.8481 152.942 23.0521 152.172 23.0521C151.424 23.0521 150.812 22.7347 150.336 22.1001C149.86 21.4654 149.576 20.7627 149.486 19.9921C149.236 17.9521 148.84 16.9321 148.296 16.9321C148.001 16.9321 147.661 17.1247 147.276 17.5101C146.913 17.8727 146.618 18.1674 146.392 18.3941C146.165 18.5981 145.904 18.8587 145.61 19.1761Z" fill="#EC5B9A"/>
<path d="M136.38 23.392C134.204 23.392 132.379 21.76 130.906 18.496C130.09 19.1533 129.059 19.8787 127.812 20.672C126.565 21.4653 125.749 21.9527 125.364 22.134C124.979 22.2927 124.661 22.372 124.412 22.372C123.732 22.372 123.392 22.032 123.392 21.352C123.392 20.9213 123.732 20.57 124.412 20.298C124.797 20.1393 125.602 19.6633 126.826 18.87C128.073 18.054 129.127 17.2947 129.988 16.592C129.489 14.96 129.24 13.1467 129.24 11.152C129.24 8.13733 129.795 5.53067 130.906 3.332C132.039 1.11067 133.297 0 134.68 0C135.269 0 135.779 0.181333 136.21 0.543999C136.641 0.906667 136.958 1.36 137.162 1.904C137.547 2.94667 137.74 4.08 137.74 5.304C137.74 6.528 137.604 7.77467 137.332 9.044C137.06 10.2907 136.731 11.3447 136.346 12.206C135.983 13.0673 135.541 13.872 135.02 14.62C134.249 15.7307 133.445 16.626 132.606 17.306C133.83 20.0033 135.088 21.352 136.38 21.352C137.264 21.352 138.216 21.182 139.236 20.842C140.256 20.502 140.8 20.332 140.868 20.332C141.548 20.332 141.888 20.672 141.888 21.352C141.888 21.8507 141.548 22.2133 140.868 22.44C138.964 23.0747 137.468 23.392 136.38 23.392ZM134.68 2.04C134.295 2.04 133.796 2.516 133.184 3.468C131.915 5.46267 131.28 8.024 131.28 11.152C131.28 12.7387 131.45 14.1327 131.79 15.334C132.538 14.6313 133.229 13.7247 133.864 12.614C135.088 10.4833 135.7 7.956 135.7 5.032C135.7 4.37467 135.609 3.71733 135.428 3.06C135.247 2.38 134.997 2.04 134.68 2.04Z" fill="#EC5B9A"/>
<path d="M118.344 23.392H116.304C115.035 23.392 113.924 23.154 112.972 22.678C112.043 22.1793 111.34 21.5447 110.864 20.774C109.957 19.3007 109.504 17.7254 109.504 16.048C109.504 14.3707 109.867 12.7047 110.592 11.05C111.317 9.39535 112.224 8.03535 113.312 6.97002C114.4 5.88202 115.545 5.03202 116.746 4.42002C117.947 3.78535 118.979 3.46802 119.84 3.46802C120.701 3.46802 121.461 3.64935 122.118 4.01202C122.775 4.37468 123.104 4.76002 123.104 5.16802C123.104 5.84802 122.764 6.18802 122.084 6.18802C121.88 6.18802 121.574 6.07468 121.166 5.84802C120.781 5.62135 120.316 5.50802 119.772 5.50802C119.251 5.50802 118.514 5.76868 117.562 6.29002C116.61 6.81135 115.681 7.51402 114.774 8.39802C113.867 9.28202 113.097 10.4267 112.462 11.832C111.85 13.2374 111.544 14.6767 111.544 16.15C111.544 17.6007 111.907 18.836 112.632 19.856C113.38 20.8534 114.604 21.352 116.304 21.352H118.344C120.361 21.352 122.152 21.0914 123.716 20.57C124.192 20.4114 124.464 20.332 124.532 20.332C125.212 20.332 125.552 20.672 125.552 21.352C125.552 21.8507 125.212 22.2134 124.532 22.44C122.628 23.0747 120.565 23.392 118.344 23.392Z" fill="#EC5B9A"/>
<path d="M104.702 1.02C104.861 0.34 105.212 0 105.756 0C106.436 0 106.776 0.34 106.776 1.02C106.776 1.11067 106.742 1.292 106.674 1.564C105.971 4.51067 105.008 6.596 103.784 7.82C103.149 8.45467 102.685 8.772 102.39 8.772C102.095 8.772 101.846 8.68133 101.642 8.5C101.438 8.31867 101.336 8.092 101.336 7.82C101.336 7.548 101.676 7.072 102.356 6.392C103.285 5.46267 104.067 3.672 104.702 1.02Z" fill="#EC5B9A"/>
<path d="M77.52 15.5721C79.0613 15.5721 79.968 16.6601 80.24 18.8361C80.2627 18.9494 80.2853 19.1534 80.308 19.4481C80.3533 19.7201 80.3873 19.9354 80.41 20.0941C80.4327 20.2528 80.4667 20.3774 80.512 20.4681C80.512 20.5588 80.5347 20.6494 80.58 20.7401C80.648 20.9214 80.7613 21.0121 80.92 21.0121C81.3507 21.0121 81.906 20.8988 82.586 20.6721C83.266 20.4454 83.64 20.3321 83.708 20.3321C84.388 20.3321 84.728 20.6721 84.728 21.3521C84.728 21.8508 84.388 22.2134 83.708 22.4401C82.484 22.8481 81.532 23.0521 80.852 23.0521C79.3787 23.0521 78.4947 21.7374 78.2 19.1081C78.064 18.1108 77.8373 17.6121 77.52 17.6121C76.84 17.6121 75.9787 18.4054 74.936 19.9921C74.5507 20.5814 74.0407 21.1254 73.406 21.6241C72.7713 22.1228 72.1253 22.3721 71.468 22.3721C70.8107 22.3721 70.2893 22.1454 69.904 21.6921C69.5187 21.2388 69.2693 20.8081 69.156 20.4001C69.02 19.9468 68.8047 18.9608 68.51 17.4421C68.2153 15.9234 68.0113 15.1188 67.898 15.0281C67.8073 14.9374 67.728 14.8921 67.66 14.8921C67.3427 14.8921 67.0593 15.0961 66.81 15.5041C66.5833 15.8894 66.3227 16.4334 66.028 17.1361C65.7333 17.8388 65.45 18.5641 65.178 19.3121C64.9287 20.0374 64.7247 20.5814 64.566 20.9441C64.4073 21.2841 64.192 21.6808 63.92 22.1341C63.4213 22.9728 62.7413 23.3921 61.88 23.3921C61.2907 23.3921 60.792 23.1881 60.384 22.7801C59.976 22.3721 59.6587 21.8508 59.432 21.2161C59.024 19.9468 58.8087 18.6548 58.786 17.3401C58.786 16.0028 58.65 14.9828 58.378 14.2801C58.1287 13.5548 57.8227 13.1921 57.46 13.1921C56.2813 13.1921 55.3973 13.9174 54.808 15.3681C54.536 16.0708 54.2413 17.0681 53.924 18.3601C53.4707 20.1054 52.394 21.3408 50.694 22.0661C50.3313 22.2701 49.9573 22.3721 49.572 22.3721C48.892 22.3721 48.552 22.0321 48.552 21.3521C48.552 20.9214 48.892 20.5701 49.572 20.2981C49.844 20.1848 49.9913 20.1281 50.014 20.1281C50.0593 20.1054 50.15 20.0601 50.286 19.9921C50.422 19.9241 50.5127 19.8788 50.558 19.8561C50.6033 19.8108 50.6827 19.7541 50.796 19.6861C50.932 19.5954 51.0227 19.5161 51.068 19.4481C51.136 19.3574 51.2153 19.2554 51.306 19.1421C51.4193 19.0288 51.4987 18.9154 51.544 18.8021C51.7253 18.4621 51.884 18.0201 52.02 17.4761C52.156 16.9321 52.2807 16.4788 52.394 16.1161C52.5073 15.7534 52.7227 15.1981 53.04 14.4501C53.3573 13.6794 53.686 13.1014 54.026 12.7161C54.366 12.3308 54.8307 11.9794 55.42 11.6621C56.032 11.3221 56.7687 11.1521 57.63 11.1521C58.514 11.1521 59.262 11.6621 59.874 12.6821C60.5087 13.6794 60.826 15.2094 60.826 17.2721C60.826 17.9974 60.9053 18.8588 61.064 19.8561C61.2453 20.8534 61.5173 21.3521 61.88 21.3521C62.0613 21.3521 62.254 21.1141 62.458 20.6381C62.662 20.1394 62.832 19.7201 62.968 19.3801C63.104 19.0174 63.2627 18.5868 63.444 18.0881C64.124 16.1614 64.7927 14.8128 65.45 14.0421C66.1073 13.2488 66.844 12.8521 67.66 12.8521C68.612 12.8521 69.292 13.2828 69.7 14.1441C70.04 14.8921 70.278 15.6288 70.414 16.3541C70.8673 19.0061 71.196 20.3321 71.4 20.3321C72.08 20.3321 72.9413 19.5388 73.984 17.9521C74.3693 17.3628 74.8793 16.8188 75.514 16.3201C76.1487 15.8214 76.8173 15.5721 77.52 15.5721Z" fill="#595861"/>
<path d="M18.3759 16.2521L18.7159 17.6121C18.7159 18.2921 18.3759 18.6321 17.6959 18.6321C17.4013 18.6321 17.0953 18.3941 16.7779 17.9181C16.4833 17.4421 16.3359 16.8641 16.3359 16.1841C16.3359 15.5041 16.7213 14.8241 17.4919 14.1441C18.2626 13.4641 19.1693 12.9201 20.2119 12.5121C22.5239 11.6054 24.4053 11.1521 25.8559 11.1521C26.7853 11.1521 27.5219 11.4354 28.0659 12.0021C28.6326 12.5461 28.9159 13.3734 28.9159 14.4841C28.9159 15.5948 28.9839 16.6261 29.1199 17.5781C29.4146 19.4141 29.8226 20.3321 30.3439 20.3321C30.6839 20.3321 31.0579 20.1621 31.4659 19.8221C31.8739 19.4821 33.1999 18.2808 35.4439 16.2181C35.6026 16.0141 35.8066 15.9121 36.0559 15.9121C36.7359 15.9121 37.0759 16.2521 37.0759 16.9321L36.7359 18.6661C36.7359 19.5274 37.0986 20.1961 37.8239 20.6721C38.5719 21.1254 39.4899 21.3521 40.5779 21.3521C41.6659 21.3521 42.8786 21.0008 44.2159 20.2981C45.5759 19.5954 46.2559 18.6888 46.2559 17.5781C46.2559 16.4674 45.8819 15.6288 45.1339 15.0621C44.4086 14.4954 43.5359 14.2121 42.5159 14.2121C41.9719 14.2121 41.4166 14.3821 40.8499 14.7221C40.3059 15.0621 39.9546 15.2321 39.7959 15.2321C39.1159 15.2321 38.7759 14.8921 38.7759 14.2121C38.7759 13.7814 39.1613 13.3394 39.9319 12.8861C40.7253 12.4101 41.5866 12.1721 42.5159 12.1721C44.1253 12.1721 45.4853 12.6481 46.5959 13.6001C47.7293 14.5521 48.2959 15.8894 48.2959 17.6121C48.2959 18.7908 47.8426 19.8448 46.9359 20.7741C46.0293 21.7034 44.9866 22.3721 43.8079 22.7801C42.6519 23.1881 41.4619 23.3921 40.2379 23.3921C39.0139 23.3921 37.8579 23.0521 36.7699 22.3721C35.6819 21.6694 35.0246 20.7288 34.7979 19.5501C34.6619 19.6634 34.4239 19.9014 34.0839 20.2641C33.7439 20.6268 33.4719 20.8988 33.2679 21.0801C33.0639 21.2388 32.7919 21.4428 32.4519 21.6921C31.8399 22.1454 31.1373 22.3721 30.3439 22.3721C29.1199 22.3721 28.2359 21.7148 27.6919 20.4001C27.1479 19.0628 26.8759 17.0001 26.8759 14.2121C26.8759 13.5321 26.5473 13.1921 25.8899 13.1921C24.8473 13.1921 23.7139 13.4074 22.4899 13.8381C21.2659 14.2461 20.2686 14.6881 19.4979 15.1641C18.7499 15.6401 18.3759 16.0028 18.3759 16.2521Z" fill="#595861"/>
<path d="M4.012 19.652L3.74 9.79202C3.74 9.11202 4.08 8.77202 4.76 8.77202C5.44 8.77202 5.78 9.15735 5.78 9.92802C5.78 10.676 5.79133 11.3447 5.814 11.934C6.29 12.0927 6.902 12.172 7.65 12.172C8.398 12.172 9.15733 12.1154 9.928 12.002C10.6987 11.8887 11.1293 11.832 11.22 11.832C11.9 11.832 12.24 12.172 12.24 12.852C12.24 13.124 12.138 13.3507 11.934 13.532C11.73 13.7134 11.492 13.8267 11.22 13.872C9.49733 14.0987 8.31867 14.212 7.684 14.212C7.04933 14.212 6.44867 14.1554 5.882 14.042C6.06333 19.55 6.154 22.3267 6.154 22.372C6.154 23.052 5.80267 23.392 5.1 23.392C4.71467 23.392 4.182 23.052 3.502 22.372C2.36867 21.2387 1.496 19.38 0.884 16.796C0.294667 14.212 0 11.6507 0 9.11202C0 8.02402 0.34 7.09468 1.02 6.32402C1.7 5.53068 2.60667 4.94135 3.74 4.55602C5.89333 3.83068 8.27333 3.46802 10.88 3.46802C12.2853 3.46802 13.3167 3.63802 13.974 3.97802C14.6313 4.29535 14.96 4.64668 14.96 5.03202C14.96 5.71202 14.62 6.05202 13.94 6.05202C13.7133 6.05202 13.4187 5.96135 13.056 5.78002C12.6933 5.59868 11.9567 5.50802 10.846 5.50802C9.758 5.50802 8.806 5.54202 7.99 5.61002C7.174 5.67802 6.256 5.82535 5.236 6.05202C3.10533 6.50535 2.04 7.52535 2.04 9.11202C2.04 10.9027 2.19867 12.7954 2.516 14.79C2.83333 16.762 3.332 18.3827 4.012 19.652Z" fill="#595861"/>
</svg>
