<svg width="80" height="45" viewBox="0 0 80 45" fill="none" xmlns="http://www.w3.org/2000/svg">
<path d="M28.306 11.6718C29.3713 12.0423 30.856 12.2276 32.76 12.2276H33.304C33.032 11.1407 32.7147 9.73264 32.352 8.00349C31.6947 4.81691 31.264 3.21128 31.06 3.18657C30.448 3.18657 29.53 6.01497 28.306 11.6718ZM35.378 12.0423L36.84 11.857C37.1573 11.857 37.4067 11.9682 37.588 12.1905C37.7694 12.3881 37.86 12.6475 37.86 12.9686C37.86 13.6356 37.52 14.0061 36.84 14.0802C36.4774 14.1296 36.1713 14.179 35.922 14.2284C36.67 16.9951 37.4747 19.2306 38.336 20.935C38.472 21.2068 38.54 21.4661 38.54 21.7132C38.54 22.4542 38.2 22.8248 37.52 22.8248C37.1574 22.8248 36.8173 22.5283 36.5 21.9355C35.616 20.2063 34.732 17.6991 33.848 14.4137C33.5307 14.4384 33.168 14.4507 32.76 14.4507C30.6747 14.4507 29.0427 14.2655 27.864 13.8949C27.4107 16.3652 27.116 18.2302 26.98 19.49C26.912 20.231 26.572 20.6016 25.96 20.6016C25.28 20.6016 24.94 20.2434 24.94 19.527C24.94 19.4035 24.9627 19.1935 25.008 18.8971C25.28 16.3281 25.8013 13.3762 26.572 10.0414C27.3427 6.68192 27.9093 4.56989 28.272 3.70532C29.0653 1.87736 29.9947 0.963384 31.06 0.963384C31.5133 0.963384 31.91 1.1116 32.25 1.40802C32.59 1.67974 32.8167 1.93912 32.93 2.18614C33.0434 2.43316 33.168 2.75429 33.304 3.14952C33.4627 3.54475 33.6327 4.18701 33.814 5.07629C34.018 5.94086 34.2674 7.06481 34.562 8.44813C34.8567 9.80674 35.1287 11.0048 35.378 12.0423ZM11.238 9.55972C12.9153 4.32287 14.196 1.70445 15.08 1.70445C15.76 1.70445 16.1 2.07498 16.1 2.81604C16.1 3.11247 15.93 3.5324 15.59 4.07585C14.8193 5.33566 13.6973 8.39872 12.224 13.265C12.972 15.6858 13.584 16.8963 14.06 16.8963C14.4 16.8963 15.0573 16.007 16.032 14.2284C17.0067 12.4499 18.6047 9.13979 20.826 4.29817C21.166 3.55711 21.5174 3.18657 21.88 3.18657C22.56 3.18657 22.9 3.55711 22.9 4.29817C22.9 4.59459 22.8207 4.91572 22.662 5.26155C20.3953 10.202 18.8653 13.4009 18.072 14.8583C17.2787 16.3158 16.5873 17.3903 15.998 18.082C15.4087 18.7736 14.7627 19.1194 14.06 19.1194C12.972 19.1194 12.0313 18.2672 11.238 16.5628C10.354 19.2059 9.49268 20.7992 8.65402 21.3426C8.24602 21.5897 7.78135 21.7132 7.26002 21.7132C6.28535 21.7132 5.46935 21.0462 4.81202 19.7123C4.17735 18.3537 3.48601 16.1552 2.73801 13.1168C1.99001 10.0538 1.48001 7.23772 1.20801 4.6687C1.16268 4.37228 1.14001 4.16231 1.14001 4.0388C1.14001 3.32243 1.48001 2.96425 2.16001 2.96425C2.77201 2.96425 3.11202 3.33479 3.18002 4.07585C3.49735 7.11421 4.13201 10.449 5.08401 14.0802C6.03601 17.6867 6.76135 19.49 7.26002 19.49C7.80402 19.49 8.30268 18.8477 8.75602 17.5632C9.18668 16.3528 9.64001 14.9324 10.116 13.3021C9.20935 9.9179 8.60868 6.74368 8.31401 3.77942C8.29135 3.5324 8.28002 3.33479 8.28002 3.18657C8.28002 2.44551 8.62002 2.07498 9.30002 2.07498C9.91201 2.07498 10.252 2.44551 10.32 3.18657C10.524 5.45917 10.83 7.58355 11.238 9.55972Z" fill="#EC5B9A"/>
<path d="M64.0127 10.9677L63.0267 1.29686V1.11159C63.0267 0.370531 63.3667 0 64.0467 0C64.6587 0 64.9987 0.370531 65.0667 1.11159C65.18 2.44551 65.4407 5.07629 65.8487 9.00392C67.8433 6.95365 70.0987 4.76751 72.6147 2.44551C73.408 1.70445 73.952 1.33392 74.2467 1.33392C74.9267 1.33392 75.2667 1.70445 75.2667 2.44551C75.2667 2.76664 74.802 3.35949 73.8727 4.22406C70.586 7.23772 68.002 9.74499 66.1207 11.7459C66.3927 14.5619 66.5627 16.501 66.6307 17.5632C68.2173 15.2165 70.0987 12.6598 72.2747 9.8932C75.7653 5.42212 77.8733 3.18657 78.5987 3.18657C79.324 3.18657 79.6867 3.55711 79.6867 4.29817C79.6867 4.6193 79.154 5.28625 78.0887 6.29904C77.0233 7.28713 75.2553 9.37446 72.7847 12.561C70.3367 15.7229 68.444 18.4031 67.1067 20.6016C66.6533 21.3426 66.2 21.7132 65.7467 21.7132C65.0667 21.7132 64.7267 21.3426 64.7267 20.6016C64.7267 19.1441 64.5793 16.8716 64.2847 13.7838C63.1287 15.1177 62.29 16.2169 61.7687 17.0815C61.2473 17.9461 60.76 18.3784 60.3067 18.3784C59.6947 18.3784 59.3547 18.0078 59.2867 17.2668C59.1733 16.0317 58.9467 14.0308 58.6067 11.2642C58.2667 8.47283 58.04 6.45961 57.9267 5.2245V5.03923C57.9267 4.29817 58.2667 3.92764 58.9467 3.92764C59.5587 3.92764 59.8987 4.29817 59.9667 5.03923C60.0573 6.12613 60.2387 7.78117 60.5107 10.0044C60.7827 12.2028 60.964 13.7097 61.0547 14.5248C61.712 13.6356 62.698 12.4499 64.0127 10.9677ZM53.3367 13.8949C53.9033 17.2544 54.4473 19.527 54.9687 20.7127C55.1273 21.0586 55.2067 21.392 55.2067 21.7132C55.2067 22.4542 54.8667 22.8248 54.1867 22.8248C53.824 22.8248 53.484 22.4542 53.1667 21.7132C52.2827 19.737 51.5687 16.7727 51.0247 12.8204C49.5967 12.8204 47.6813 13.0551 45.2787 13.5244L43.6467 20.6016C43.556 20.9968 43.4313 21.2809 43.2727 21.4538C43.1367 21.6267 42.9213 21.7132 42.6267 21.7132C41.9467 21.7132 41.6067 21.3426 41.6067 20.6016C41.6067 20.404 41.6293 20.2557 41.6747 20.1569L43.1367 13.7467H42.6267C41.9467 13.7467 41.6067 13.3762 41.6067 12.6351C41.6067 11.8941 41.9467 11.5235 42.6267 11.5235C43.0347 11.5235 43.3747 11.5112 43.6467 11.4865C44.1907 9.3127 44.9613 6.55841 45.9587 3.22363C46.5933 1.07454 47.6133 0 49.0187 0C49.4267 0 49.8573 0.172915 50.3107 0.518745C50.7867 0.839872 51.1267 1.40802 51.3307 2.22319C51.852 4.24876 52.3733 7.16362 52.8947 10.9677C53.2573 11.116 53.7333 11.4494 54.3227 11.9682C54.912 12.4622 55.2067 12.8698 55.2067 13.1909C55.2067 13.932 54.8667 14.3025 54.1867 14.3025C54.028 14.3025 53.7447 14.1667 53.3367 13.8949ZM50.7187 10.5972C49.9707 5.01453 49.404 2.22319 49.0187 2.22319C48.8147 2.22319 48.6673 2.28495 48.5767 2.40846C48.486 2.50727 48.418 2.58137 48.3727 2.63078C48.3273 2.68018 48.2707 2.77899 48.2027 2.9272C48.1573 3.07541 48.1233 3.17422 48.1007 3.22363C47.9647 3.52005 47.8967 3.74237 47.8967 3.89058C46.854 7.29948 46.1627 9.72029 45.8227 11.153C47.5 10.8319 49.132 10.6466 50.7187 10.5972Z" fill="#EC5B9A"/>
<path d="M7.644 39.0193L8.148 38.8667C8.428 38.8667 8.568 39.0193 8.568 39.3244C8.568 39.5482 8.442 39.7059 8.19 39.7974C7.938 39.889 7.756 39.9347 7.644 39.9347C7.196 39.9347 6.85533 39.6296 6.622 39.0193C6.49133 38.6836 6.37933 37.9767 6.286 36.8985C6.202 35.8204 6.118 34.849 6.034 33.9844C5.95933 33.1097 5.86133 32.6723 5.74 32.6723C5.628 32.6723 5.488 33.3792 5.32 34.7931C5.28267 35.1287 5.25 35.4186 5.222 35.6627C5.20333 35.8967 5.17067 36.1967 5.124 36.5629C5.08667 36.9189 5.05867 37.1783 5.04 37.341C4.96533 38.0225 4.84867 38.526 4.69 38.8515C4.53133 39.1668 4.27467 39.3244 3.92 39.3244C3.472 39.3244 3.13133 39.0193 2.898 38.409C2.758 38.0733 2.56667 37.3817 2.324 36.334C2.09067 35.2762 1.87133 34.3252 1.666 33.4809C1.47 32.6367 1.33467 32.2146 1.26 32.2146C1.13867 32.2146 1.036 33.2114 0.952 35.205C0.877333 37.1884 0.84 38.7192 0.84 39.7974C0.84 40.0924 0.7 40.2399 0.42 40.2399C0.270667 40.2399 0.163333 40.1941 0.098 40.1026C0.0326667 40.0008 0 39.8991 0 39.7974C0 38.821 0.0326667 37.4224 0.098 35.6017C0.172667 33.7708 0.261333 32.6418 0.364 32.2146C0.513333 31.6043 0.807333 31.2992 1.246 31.2992C1.68467 31.2992 2.00667 31.6043 2.212 32.2146C2.324 32.5401 2.49667 33.247 2.73 34.3353C2.97267 35.4135 3.20133 36.3645 3.416 37.1884C3.63067 38.0021 3.794 38.409 3.906 38.409C4.02733 38.409 4.12533 38.0225 4.2 37.2495C4.51733 34.4828 4.72267 32.9571 4.816 32.6723C4.9 32.3875 5.00733 32.1637 5.138 32.001C5.278 31.8382 5.47867 31.7569 5.74 31.7569C6.188 31.7569 6.51 32.062 6.706 32.6723C6.78067 32.8757 6.85533 33.5216 6.93 34.61C7.00467 35.6983 7.098 36.7053 7.21 37.6309C7.322 38.5565 7.46667 39.0193 7.644 39.0193Z" fill="#2D0818"/>
<path d="M16.1016 36.8375C15.7656 37.6207 15.4063 38.2564 15.0236 38.7447C14.641 39.2329 14.3003 39.477 14.0016 39.477C13.3763 39.477 12.9656 38.9837 12.7696 37.9971C12.5736 38.3632 12.331 38.6989 12.0416 39.004C11.463 39.6245 10.8096 39.9347 10.0816 39.9347C9.70831 39.9347 9.38164 39.7822 9.10164 39.477C8.82164 39.1719 8.68164 38.8159 8.68164 38.409C8.68164 37.4122 9.01297 36.5527 9.67564 35.8305C10.3383 35.1084 11.043 34.7473 11.7896 34.7473C12.2096 34.7473 12.569 34.8337 12.8676 35.0067C13.1756 35.1694 13.3296 35.3372 13.3296 35.5101C13.3296 35.8153 13.1896 35.9679 12.9096 35.9679C12.8536 35.9679 12.7183 35.917 12.5036 35.8153C12.289 35.7136 12.051 35.6627 11.7896 35.6627C11.3043 35.6627 10.805 35.9272 10.2916 36.4561C9.77831 36.985 9.52164 37.636 9.52164 38.409C9.52164 38.5616 9.57764 38.704 9.68964 38.8362C9.80164 38.9583 9.94164 39.0193 10.1096 39.0193C10.287 39.0193 10.4643 38.9837 10.6416 38.9125C10.8283 38.8413 10.9823 38.7599 11.1036 38.6684C11.225 38.5768 11.351 38.4548 11.4816 38.3022C11.6776 38.0886 11.855 37.8496 12.0136 37.5851L12.1536 37.341C12.303 37.1071 12.3916 36.9647 12.4196 36.9138C12.457 36.8528 12.4943 36.7917 12.5316 36.7307C12.5783 36.6697 12.611 36.6239 12.6296 36.5934C12.6576 36.5629 12.6856 36.5324 12.7136 36.5019C12.7603 36.451 12.8396 36.4256 12.9516 36.4256C13.073 36.4256 13.171 36.4917 13.2456 36.6239C13.3296 36.746 13.409 36.9901 13.4836 37.3563C13.633 38.1598 13.8056 38.5616 14.0016 38.5616C14.067 38.5616 14.1743 38.4649 14.3236 38.2717C14.4823 38.0784 14.6596 37.7987 14.8556 37.4325C15.0516 37.0664 15.243 36.6595 15.4296 36.212C15.887 35.144 16.1716 34.076 16.2836 33.008C16.2836 32.9774 16.293 32.8401 16.3116 32.596C16.3396 32.3417 16.3723 31.9908 16.4096 31.5433C16.447 31.0957 16.4843 30.6482 16.5216 30.2006C16.5496 29.8955 16.6896 29.7429 16.9416 29.7429C17.2216 29.7429 17.3616 29.8955 17.3616 30.2006C17.3616 30.2413 17.3523 30.343 17.3336 30.5058C17.0723 33.3538 16.9416 35.5305 16.9416 37.0359C16.9416 37.5241 16.9883 37.8801 17.0816 38.1039C18.1083 36.985 19.0883 36.4256 20.0216 36.4256C20.3016 36.4256 20.4416 36.5781 20.4416 36.8833C20.4416 37.1884 20.283 37.341 19.9656 37.341C19.6576 37.341 19.3216 37.4478 18.9576 37.6614C18.603 37.8648 18.309 38.0886 18.0756 38.3327C17.8516 38.5768 17.6416 38.8057 17.4456 39.0193C17.259 39.2227 17.1376 39.3244 17.0816 39.3244C16.7363 39.3244 16.4843 39.0752 16.3256 38.5768C16.1763 38.0683 16.1016 37.4885 16.1016 36.8375Z" fill="#2D0818"/>
<path d="M23.5205 36.1204L23.6605 36.7307C23.6605 37.0359 23.5205 37.1884 23.2405 37.1884C23.1192 37.1884 22.9932 37.0816 22.8625 36.868C22.7412 36.6544 22.6805 36.4052 22.6805 36.1204C22.6805 35.622 22.9605 35.2508 23.5205 35.0067C23.9125 34.8337 24.3139 34.7473 24.7245 34.7473C25.1445 34.7473 25.4665 34.8744 25.6905 35.1287C25.9239 35.3728 26.0405 35.7441 26.0405 36.2425C26.0405 36.7307 26.0825 37.2342 26.1665 37.7529C26.2505 38.2615 26.3485 38.6531 26.4605 38.9277C26.5725 39.1922 26.6752 39.3244 26.7685 39.3244C26.9925 39.3244 27.2865 39.2532 27.6505 39.1108C28.0239 38.9583 28.3645 38.7141 28.6725 38.3785C28.7192 38.3276 28.8685 38.1598 29.1205 37.875C29.3725 37.5902 29.5685 37.3766 29.7085 37.2342C29.8392 37.0918 30.0165 36.9189 30.2405 36.7155C30.6699 36.3188 31.0339 36.1204 31.3325 36.1204C31.6405 36.1204 31.8925 36.2272 32.0885 36.4408C32.2845 36.6443 32.4292 36.8935 32.5225 37.1884C32.6065 37.4936 32.6859 37.7987 32.7605 38.1039C32.9285 38.826 33.1152 39.182 33.3205 39.1719C33.4979 39.1719 33.7265 39.121 34.0065 39.0193C34.2865 38.9176 34.4405 38.8667 34.4685 38.8667C34.7485 38.8667 34.8885 39.0193 34.8885 39.3244C34.8885 39.5482 34.7485 39.711 34.4685 39.8127C33.9645 39.9958 33.5725 40.0873 33.2925 40.0873C33.0219 40.0873 32.7885 39.9856 32.5925 39.7822C32.3965 39.5686 32.2519 39.3143 32.1585 39.0193C32.0745 38.7142 31.9952 38.409 31.9205 38.1039C31.7525 37.3919 31.5705 37.0359 31.3745 37.0359C31.1785 37.0359 30.4739 37.697 29.2605 39.0193C28.9245 39.3855 28.5232 39.6804 28.0565 39.9042C27.5899 40.128 27.1605 40.2399 26.7685 40.2399C26.2832 40.2399 25.9005 39.8534 25.6205 39.0803C25.3405 38.2971 25.2005 37.3105 25.2005 36.1204C25.2005 35.8153 25.0652 35.6627 24.7945 35.6627C24.5799 35.6627 24.3139 35.7085 23.9965 35.8C23.6792 35.8814 23.5205 35.9882 23.5205 36.1204ZM31.7805 32.6723C31.9299 32.6723 32.0839 32.7486 32.2425 32.9012C32.4012 33.0436 32.4805 33.1961 32.4805 33.3589C32.4805 33.5114 32.4199 33.6284 32.2985 33.7098C32.1865 33.7912 32.0559 33.8318 31.9065 33.8318C31.7572 33.8318 31.6265 33.7606 31.5145 33.6182C31.4119 33.4657 31.3605 33.3029 31.3605 33.13C31.3605 32.8249 31.5005 32.6723 31.7805 32.6723Z" fill="#2D0818"/>
<path d="M35.182 39.477C35.126 39.5177 35.0093 39.5787 34.832 39.6601C34.6547 39.7415 34.5147 39.7822 34.412 39.7822C34.132 39.7822 33.992 39.6296 33.992 39.3244C33.992 39.2126 34.0247 39.1261 34.09 39.0651C34.146 39.004 34.2627 38.9328 34.44 38.8515C34.6267 38.7599 34.7433 38.6989 34.79 38.6684C34.846 38.6277 34.944 38.3938 35.084 37.9665C35.2333 37.5292 35.392 37.0765 35.56 36.6087C35.7373 36.1408 36.0127 35.7136 36.386 35.3271C36.7593 34.9405 37.1653 34.7473 37.604 34.7473C38.052 34.7473 38.402 34.9761 38.654 35.4339C38.9153 35.8814 39.046 36.568 39.046 37.4936C39.0367 38.4293 39.0973 38.9939 39.228 39.1871C39.284 39.2787 39.3493 39.3244 39.424 39.3244C39.4987 39.3244 39.5593 39.2888 39.606 39.2176C39.6527 39.1464 39.704 39.0396 39.76 38.8972C39.816 38.7447 39.872 38.5921 39.928 38.4395C39.984 38.2869 40.0493 38.0988 40.124 37.875C40.1987 37.6411 40.2593 37.4631 40.306 37.341C40.3527 37.2189 40.4133 37.0562 40.488 36.8528C40.5627 36.6493 40.614 36.5019 40.642 36.4103C40.6793 36.3188 40.7307 36.1967 40.796 36.0441C40.8707 35.8814 40.936 35.7644 40.992 35.6932C41.048 35.622 41.1227 35.5407 41.216 35.4491C41.3747 35.2864 41.5753 35.205 41.818 35.205C42.07 35.205 42.2847 35.2813 42.462 35.4339C42.6393 35.5864 42.784 35.8051 42.896 36.0899C43.0547 36.4866 43.2087 37.0765 43.358 37.8597C43.5073 38.6328 43.6147 39.0193 43.68 39.0193C43.764 39.0193 43.848 38.9634 43.932 38.8515C44.016 38.7294 44.128 38.5311 44.268 38.2564C44.408 37.9818 44.52 37.7733 44.604 37.6309C45.08 36.8273 45.6587 36.4256 46.34 36.4256C46.564 36.4256 46.7787 36.4968 46.984 36.6392C47.1987 36.7816 47.3713 36.9392 47.502 37.1121C47.8473 37.5699 48.1133 37.7987 48.3 37.7987C48.804 37.7987 49.2287 37.6105 49.574 37.2342C49.7887 37.0003 49.9707 36.8833 50.12 36.8833C50.4 36.8833 50.54 37.0359 50.54 37.341C50.54 37.4427 50.47 37.5699 50.33 37.7224C50.19 37.875 50.12 38.0021 50.12 38.1039C50.12 38.1954 50.1527 38.3022 50.218 38.4243C50.2833 38.5463 50.3907 38.6785 50.54 38.8209C50.8853 39.1566 51.4453 39.3244 52.22 39.3244C52.6867 39.3244 53.13 39.2227 53.55 39.0193C53.9793 38.8159 54.194 38.5209 54.194 38.1344C54.194 37.7479 54.0447 37.4427 53.746 37.2189C53.4473 36.9952 53.0973 36.8833 52.696 36.8833C52.5933 36.8833 52.4487 36.9087 52.262 36.9596C52.0847 37.0104 51.9773 37.0359 51.94 37.0359C51.66 37.0359 51.52 36.8833 51.52 36.5781C51.52 36.4256 51.6413 36.2883 51.884 36.1662C52.1267 36.034 52.3973 35.9679 52.696 35.9679C53.424 35.9679 53.9933 36.1865 54.404 36.6239C54.8147 37.0613 55.02 37.5902 55.02 38.2107C55.02 38.8311 54.74 39.3244 54.18 39.6906C53.62 40.0568 52.9433 40.2399 52.15 40.2399C51.3567 40.2399 50.722 40.072 50.246 39.7364C49.7793 39.3906 49.476 38.9786 49.336 38.5005C49.0747 38.6429 48.7807 38.7141 48.454 38.7141C48.1273 38.7141 47.8567 38.6429 47.642 38.5005C47.4367 38.3581 47.2687 38.2005 47.138 38.0276C46.7927 37.5699 46.5313 37.341 46.354 37.341C46.186 37.341 46.0367 37.3766 45.906 37.4478C45.7847 37.5088 45.6633 37.6258 45.542 37.7987C45.4207 37.9716 45.332 38.1039 45.276 38.1954C45.22 38.2869 45.1267 38.4599 44.996 38.7141C44.8653 38.9684 44.7487 39.1719 44.646 39.3244C44.5527 39.477 44.4173 39.6194 44.24 39.7516C44.072 39.8737 43.8713 39.9347 43.638 39.9347C43.414 39.9347 43.2227 39.833 43.064 39.6296C42.9053 39.4262 42.8027 39.2329 42.756 39.0498C42.7 38.8464 42.6253 38.4853 42.532 37.9665C42.308 36.7358 42.084 36.1204 41.86 36.1204C41.7573 36.1204 41.6687 36.2018 41.594 36.3645C41.5193 36.5273 41.4633 36.6595 41.426 36.7612C41.3887 36.8629 41.3327 37.0155 41.258 37.2189C41.1927 37.4122 41.132 37.5749 41.076 37.7072C41.0293 37.8394 40.95 38.0733 40.838 38.409C40.7353 38.7345 40.6513 38.9786 40.586 39.1413C40.5207 39.2939 40.432 39.4719 40.32 39.6754C40.1147 40.0517 39.8533 40.2399 39.536 40.2399C39.2187 40.2399 38.9713 40.1585 38.794 39.9958C38.6167 39.833 38.4907 39.6092 38.416 39.3244C38.2853 38.826 38.2153 38.2513 38.206 37.6004C38.206 36.9494 38.15 36.4663 38.038 36.1509C37.9353 35.8255 37.8093 35.6627 37.66 35.6627C37.3333 35.6627 37.044 35.8356 36.792 36.1815C36.5493 36.5069 36.3627 36.8833 36.232 37.3105C35.8773 38.5107 35.5273 39.2329 35.182 39.477Z" fill="#2D0818"/>
<path d="M64.4247 39.8127C63.9207 39.9958 63.5287 40.0873 63.2487 40.0873C62.9687 40.0873 62.7494 39.9754 62.5907 39.7516C62.4321 39.5279 62.2874 39.1464 62.1567 38.6073C62.0354 38.0683 61.9421 37.7987 61.8767 37.7987C61.6341 37.7987 61.3774 38.2056 61.1067 39.0193C61.0041 39.3244 60.8361 39.6042 60.6027 39.8584C60.3694 40.1127 60.0754 40.2399 59.7207 40.2399C59.3754 40.2399 59.1047 40.072 58.9087 39.7364C58.7127 39.4007 58.5961 39.0346 58.5587 38.6379C58.5307 38.2412 58.4841 37.875 58.4187 37.5393C58.3534 37.2037 58.2461 37.0359 58.0967 37.0359C57.9941 37.0359 57.9194 37.0664 57.8727 37.1274C57.8261 37.1884 57.7841 37.2495 57.7467 37.3105C57.7187 37.3613 57.6861 37.4173 57.6487 37.4783C57.6207 37.5292 57.5834 37.6004 57.5367 37.6919C57.4994 37.7835 57.4527 37.8801 57.3967 37.9818C57.21 38.3378 57.0607 38.6023 56.9487 38.7752C56.7247 39.1617 56.3934 39.4567 55.9547 39.6601C55.7867 39.7415 55.6514 39.7822 55.5487 39.7822C55.2687 39.7822 55.1287 39.6296 55.1287 39.3244C55.1287 39.1312 55.278 38.9735 55.5767 38.8515C55.8754 38.7294 56.0854 38.5565 56.2067 38.3327C56.3374 38.0988 56.4821 37.8343 56.6407 37.5393C56.7994 37.2444 56.9067 37.046 56.9627 36.9443C57.0281 36.8426 57.1074 36.7205 57.2007 36.5781C57.2941 36.4256 57.3781 36.3289 57.4527 36.2883C57.6487 36.1764 57.8634 36.1204 58.0967 36.1204C58.4794 36.1204 58.7687 36.2883 58.9647 36.6239C59.1607 36.9596 59.2727 37.3257 59.3007 37.7224C59.3381 38.1191 59.3894 38.4853 59.4547 38.8209C59.5201 39.1566 59.6274 39.3244 59.7767 39.3244C59.9261 39.3244 60.0661 39.1973 60.1967 38.943C60.3367 38.6887 60.4581 38.409 60.5607 38.1039C60.6634 37.7987 60.8267 37.519 61.0507 37.2647C61.2841 37.0104 61.5594 36.8833 61.8767 36.8833C62.1194 36.8833 62.2967 36.9494 62.4087 37.0816C62.5207 37.2037 62.6001 37.3003 62.6467 37.3715C62.7027 37.4427 62.7494 37.5495 62.7867 37.6919C62.8334 37.8343 62.8661 37.9411 62.8847 38.0123C62.9034 38.0733 62.9314 38.1852 62.9687 38.348C63.0807 38.9074 63.1834 39.182 63.2767 39.1719C63.4541 39.1719 63.6827 39.121 63.9627 39.0193C64.2427 38.9176 64.3967 38.8667 64.4247 38.8667C64.7047 38.8667 64.8447 39.0193 64.8447 39.3244C64.8447 39.5482 64.7047 39.711 64.4247 39.8127Z" fill="#2D0818"/>
<path d="M69.9951 36.1204C69.9951 37.402 69.9391 38.7752 69.8271 40.2399C69.7244 41.7147 69.5938 42.8438 69.4351 43.627C69.2578 44.5424 68.8377 45.0001 68.1751 45.0001C66.9617 45.0001 66.3551 44.1152 66.3551 42.3454C66.3551 41.8571 66.4764 41.3842 66.7191 40.9264C66.9711 40.4687 67.2511 40.2399 67.5591 40.2399C67.8764 40.2399 68.0351 40.3924 68.0351 40.6976C68.0351 40.7688 67.9697 40.8552 67.8391 40.957C67.4097 41.2824 67.1951 41.7351 67.1951 42.3148C67.1951 42.9048 67.2604 43.3473 67.3911 43.6422C67.5311 43.9372 67.7924 44.0847 68.1751 44.0847C68.3991 44.0847 68.5531 43.8507 68.6371 43.3829C68.8144 42.4776 68.9591 41.0434 69.0711 39.0803C69.1084 38.4599 69.1224 38.0835 69.1131 37.9513C68.9171 38.2564 68.7724 38.4497 68.6791 38.5311C68.5951 38.6023 68.5064 38.6786 68.4131 38.7599C68.3291 38.8311 68.2451 38.8922 68.1611 38.943C68.0864 38.9837 67.9884 39.0346 67.8671 39.0956C67.7551 39.1464 67.6384 39.1871 67.5171 39.2176C67.2371 39.2888 66.9431 39.3244 66.6351 39.3244C66.1404 39.3244 65.7857 39.0193 65.5711 38.409C65.2817 37.6055 65.0811 36.5883 64.9691 35.3576C64.9597 35.2965 64.9551 35.2152 64.9551 35.1135C64.9551 34.8693 65.0857 34.7473 65.3471 34.7473C65.6177 34.7473 65.7671 34.8999 65.7951 35.205C65.8604 35.8763 65.9678 36.5781 66.1171 37.3105C66.2757 38.0428 66.4484 38.409 66.6351 38.409C67.2417 38.409 67.7131 38.2412 68.0491 37.9055C68.3851 37.5699 68.7537 36.9748 69.1551 36.1204C69.2671 35.8153 69.4071 35.6627 69.5751 35.6627C69.8551 35.6627 69.9951 35.8153 69.9951 36.1204Z" fill="#2D0818"/>
</svg>
